<?xml version="1.0" encoding="UTF-8" standalone="no"?>
<!-- Uploaded to: SVG Repo, www.svgrepo.com, Generator: SVG Repo Mixer Tools -->

<svg
   width="650"
   height="650"
   viewBox="0 0 19.5 19.5"
   fill="none"
   version="1.1"
   id="svg4"
   sodipodi:docname="share.svg"
   xmlns:inkscape="http://www.inkscape.org/namespaces/inkscape"
   xmlns:sodipodi="http://sodipodi.sourceforge.net/DTD/sodipodi-0.dtd"
   xmlns="http://www.w3.org/2000/svg"
   xmlns:svg="http://www.w3.org/2000/svg">
  <defs
     id="defs8" />
  <sodipodi:namedview
     id="namedview6"
     pagecolor="#ffffff"
     bordercolor="#000000"
     borderopacity="0.25"
     inkscape:showpageshadow="2"
     inkscape:pageopacity="0.0"
     inkscape:pagecheckerboard="0"
     inkscape:deskcolor="#d1d1d1" />
  <path
     d="M 6.43445,8.4078 10.75,6.25003 M 13.0657,14.4078 8.75,12.25 m 10,-8.5 c 0,1.65685 -1.3431,3 -3,3 -1.6569,0 -3,-1.34315 -3,-3 0,-1.65685 1.3431,-3 3,-3 1.6569,0 3,1.34315 3,3 z m -12,6 c 0,1.6569 -1.34315,3 -3,3 -1.65685,0 -3,-1.3431 -3,-3 0,-1.6569 1.34315,-3 3,-3 1.65685,0 3,1.3431 3,3 z m 12,6 c 0,1.6569 -1.3431,3 -3,3 -1.6569,0 -3,-1.3431 -3,-3 0,-1.6569 1.3431,-3 3,-3 1.6569,0 3,1.3431 3,3 z"
     stroke="#000000"
     stroke-width="1.5"
     id="path2" />
</svg>
