<?xml version="1.0" encoding="UTF-8" standalone="no"?>
<!-- Uploaded to: SVG Repo, www.svgrepo.com, Generator: SVG Repo Mixer Tools -->

<svg
   fill="#000000"
   width="706.34906"
   height="706.34906"
   viewBox="0 0 21.190472 21.190472"
   version="1.1"
   id="svg4"
   sodipodi:docname="sun.svg"
   xmlns:inkscape="http://www.inkscape.org/namespaces/inkscape"
   xmlns:sodipodi="http://sodipodi.sourceforge.net/DTD/sodipodi-0.dtd"
   xmlns="http://www.w3.org/2000/svg"
   xmlns:svg="http://www.w3.org/2000/svg">
  <defs
     id="defs8" />
  <sodipodi:namedview
     id="namedview6"
     pagecolor="#ffffff"
     bordercolor="#000000"
     borderopacity="0.25"
     inkscape:showpageshadow="2"
     inkscape:pageopacity="0.0"
     inkscape:pagecheckerboard="0"
     inkscape:deskcolor="#d1d1d1" />
  <path
     fill-rule="evenodd"
     d="M 6.2065457,21.190472 4.5220903,16.668382 0,14.983926 2.006511,10.595236 0,6.2065457 4.5220903,4.5220903 6.2065457,0 10.595236,2.006511 14.983926,0 l 1.684456,4.5220903 4.52209,1.6844554 -2.006511,4.3886903 2.006511,4.38869 -4.52209,1.684456 -1.684456,4.52209 -4.38869,-2.006511 z m 4.3886903,-4.205631 3.264978,1.49275 1.253155,-3.364222 3.364222,-1.253155 -1.49275,-3.264978 1.49275,-3.2649779 L 15.113369,6.077103 13.860214,2.7128817 10.595236,4.205631 7.3302581,2.7128817 6.077103,6.077103 2.7128817,7.3302581 4.205631,10.595236 2.7128817,13.860214 6.077103,15.113369 7.3302581,18.477591 Z m 0,-1.389605 c -2.7614235,0 -4.9999998,-2.238576 -4.9999998,-5 0,-2.7614235 2.2385763,-4.9999998 4.9999998,-4.9999998 2.761424,0 5,2.2385763 5,4.9999998 0,2.761424 -2.238576,5 -5,5 z m 0,-2 c 1.656854,0 3,-1.343146 3,-3 0,-1.6568538 -1.343146,-2.9999998 -3,-2.9999998 -1.6568538,0 -2.9999998,1.343146 -2.9999998,2.9999998 0,1.656854 1.343146,3 2.9999998,3 z"
     id="path2" />
</svg>
